<svg xmlns="http://www.w3.org/2000/svg" version="1.1" xmlns:xlink="http://www.w3.org/1999/xlink" xmlns:svgjs="http://svgjs.dev/svgjs" width="1000" height="1125" viewBox="0 0 1000 1125"><g transform="matrix(1,0,0,1,1.7053025658242404e-13,0)"><svg viewBox="0 0 320 360" data-background-color="#ffffff" preserveAspectRatio="xMidYMid meet" height="1125" width="1000" xmlns="http://www.w3.org/2000/svg" xmlns:xlink="http://www.w3.org/1999/xlink"><defs></defs><g id="tight-bounds" transform="matrix(1,0,0,1,0,0)"><svg viewBox="0 0 320 360" height="360" width="320"><g><svg></svg></g><g><svg viewBox="0 0 320 360" height="360" width="320"><g><path d="M20.961 227.22l3.726 4.658-1.863-6.056c-0.466-2.795-3.726 0.466-1.863 1.398M25.153 224.425c1.397 2.329 2.795 4.658 2.795 6.987 0 3.261 2.795 4.658 5.123 5.589-3.261-3.726-5.124-13.974-7.918-12.576M204.017 26.929c7.918 0 15.371-0.932 23.756 0.931 20.495 5.124 37.729 15.371 49.374 29.811l32.606 52.169c1.397 13.042 4.192 27.482 3.726 43.319 3.261 0 2.795-4.658 6.521-5.59-3.726 9.316-5.59 20.961-6.521 34.469-2.329-7.453 0-18.632 0.466-24.687-3.261 5.124-5.124 1.397-5.124-0.932 0.466-3.726-1.397-3.261-2.795-4.658-5.124-4.658-8.384-9.782-12.11-17.7 2.329-6.055 2.795-14.905-4.658-19.563-2.329-1.397-5.124-3.726-6.521-7.453-1.863-5.124-5.124-11.179-4.193-19.097 0.466-2.329-6.987 5.124-11.179 1.863-18.166-12.576-36.332-27.016-58.224-39.127-11.645 0-20.029-4.192-24.221-9.316-3.726-4.658-0.932-10.713 4.658-11.179 3.261 0 6.987-0.932 9.782 0.932 0.466-1.863 2.329-4.192 4.657-4.192M157.904 16.215l0.932 0.466c4.658 0.932 6.987 7.453 12.11 5.124 0 3.261 0.466 6.521-0.466 8.85-1.397 3.726-5.59 3.726-8.85 3.726-31.208-1.863-49.374 11.179-68.471 22.358-5.124 3.261-10.713 5.59-14.906 9.782-20.029 18.632-41.921 35.866-47.045 70.335l-4.192 38.195c-0.466 4.192-5.124 8.384-4.192 13.508l3.26 22.824c-3.261-3.261-5.124 0.932-4.192 2.795 0.466 1.397 2.329 6.055 5.124 1.863 3.726 6.987 7.453 20.495 12.576 26.55 15.837 18.632 36.332 35.4 53.101 52.169 4.192-0.932 7.453-0.932 8.384-3.727 1.397 2.795-1.397 5.59-3.726 6.056 7.453 4.658 15.837 8.85 27.016 9.781 14.44 0.932 27.948 3.261 40.524 6.522 6.521-1.863 13.042-2.795 20.029-3.261 2.329 0 3.726-3.726 6.521-4.658l0.466-4.658c2.795 4.192 2.329-1.397 0.466-4.192 3.261 2.795 4.192 5.124 5.589 6.987 0-1.397 3.726-6.521 3.727-0.466l0.931-6.055c1.397-0.932 1.863 5.124 3.261 0.931 1.397-4.192 4.192-0.932 6.987-2.329-0.932 1.863-0.466 5.59 2.794 3.261l3.727-3.261c2.329 5.59 6.055 3.261 7.918 2.329 20.495-13.042 40.99-28.413 60.553-43.784l-0.466 6.055 2.329-7.453c2.329 2.329 4.192 0.466 5.124-0.931 2.795-4.658 6.521-9.316 12.577-13.508-7.453 20.029-16.303 35.866-27.482 48.908l-4.658 5.59c0 3.261-0.932 7.453-4.658 7.918-1.863 0.466-5.59-0.932-8.384 1.863-1.397 1.863 3.261 5.59-0.466 2.795-3.261-2.329-6.521 0-10.248 0.932-2.795 0.932 1.863 3.726 2.795 5.589 0.932 1.863 1.863 3.726 1.398 6.056l-5.124-5.59c-6.055 3.261-9.782 9.316-14.906 13.974-2.329 1.863-1.397 5.124-1.397 7.918-3.261 0-6.987-0.932-8.85 0.932-1.397 1.863-0.932 4.658-0.932 7.453-4.658-0.466-5.124-7.453-9.315-6.056-4.192 0.932-8.85 1.397-12.577 3.727 2.795 5.59-4.658 2.329-3.726 3.26-6.987-4.192-13.042-7.453-20.495-4.658-15.837-5.124-35.4-2.795-49.84-0.931 0-2.329 0.466-4.658-0.466-5.124-0.932 2.329-3.726 1.397-3.26 1.397-8.85-6.055-17.7-9.782-27.016-14.905-8.384 0.932-16.303-3.261-18.632-5.59-6.521-6.055-13.974-2.795-20.029-4.192-13.042-3.261-17.7-16.769-19.098-26.084-0.932-4.658-4.658-6.521-6.055-6.056-6.055-19.563-15.371-37.263-22.824-55.429-1.863-4.658-1.397-9.316-1.397-14.44 2.329 0.932 4.658 0.466 4.192-2.794-2.329-15.371-7.918-27.016-13.974-38.195 3.261-15.837 3.726-34.469 11.179-48.443 6.521-12.576 18.632-19.098 27.016-29.811 2.795-3.726 2.795-8.85 5.59-12.11 9.316-9.316 18.632-19.098 28.879-27.482 4.658-3.726 10.247 0 17.234-1.397 2.329-8.384 11.645-15.837 20.495-13.508 3.726 0.932 11.179-8.85 13.508-9.782 3.726-1.397 1.863 3.726 1.863 6.987 8.85-6.987 20.961-10.713 32.14-14.906" fill="#bb84e8" data-fill-palette-color="tertiary"></path></g><g transform="matrix(1,0,0,1,64,113.66791915789474)"><svg viewBox="0 0 192 132.6641616842105" height="132.6641616842105" width="192"><g><svg viewBox="0 0 192 132.6641616842105" height="132.6641616842105" width="192"><g><svg viewBox="0 0 192 132.6641616842105" height="132.6641616842105" width="192"><g transform="matrix(1,0,0,1,0,71.01965978947368)"><svg viewBox="0 0 192 61.644501894736834" height="61.644501894736834" width="192"><g><svg viewBox="0 0 192 61.644501894736834" height="61.644501894736834" width="192"><g><svg viewBox="0 0 192 34.94736842105263" height="34.94736842105263" width="192"><g transform="matrix(1,0,0,1,0,0)"><svg width="192" viewBox="3.5 -32.70000076293945 182.3800048828125 33.20000076293945" height="34.94736842105263" data-palette-color="#bb84e8"><path d="M15.8-25.95L11.65-25.9 11.5-18.4 15.55-18.4 21.15-18.55 21.6-17.95 21.1-11.95 14.95-12.1 11.4-12.1 11.35-10.35 11.65 0 3.5 0 3.95-9.55 3.5-32.25 23.7-32.25 24.15-31.65 23.6-25.65 15.8-25.95ZM35.1-32.25L34.65-10.35 34.95 0 26.8 0 27.25-9.55 26.8-32.25 35.1-32.25ZM62.99-32.25L63.45-31.65 62.99-25.7 56.69-26 55.3-26 55.05-10.35 55.34 0 47.24 0 47.7-9.55 47.45-26 45.95-26 39.59-25.7 39.09-26.3 39.59-32.25 62.99-32.25ZM73.64-16.35L74.24-15.8 74.24-10.9 62.39-9.05 61.79-9.65 61.79-14.55 73.64-16.35ZM92.69-32.7Q97.29-32.7 101.04-31.05L101.04-31.05 99.59-24.4 99.04-24.1Q97.64-25.05 95.87-25.58 94.09-26.1 92.39-26.1L92.39-26.1Q88.79-26.1 87.06-23.85 85.34-21.6 85.34-16.75L85.34-16.75Q85.34-6.25 92.79-6.25L92.79-6.25Q94.44-6.25 96.29-6.7 98.14-7.15 99.64-7.95L99.64-7.95 100.34-7.55 99.69-0.9Q96.19 0.5 92.14 0.5L92.14 0.5Q84.59 0.5 80.69-3.7 76.79-7.9 76.79-15.85L76.79-15.85Q76.79-23.9 80.94-28.3 85.09-32.7 92.69-32.7L92.69-32.7ZM122.89-6.65L123.39-6.05 122.84 0 104.69 0 105.14-9.55 104.69-32.25 112.94-32.25 112.49-10.35 112.64-6.65 122.89-6.65ZM144.24-32.25L153.69 0 145.44 0 144.59-4.65 144.13-6.5 138.34-6.6 133.34-6.45 132.94-5.15 132.03 0 124.08 0 134.48-32.25 144.24-32.25ZM138.88-12.5L142.59-12.6 139.44-24.85 138.94-24.85 135.19-12.6 138.88-12.5ZM185.88-32.4L185.43-10.2 185.73 0 176.93 0 165.48-19.95 164.98-19.95 164.93-11.35 165.23 0 157.88 0 158.28-9.5 157.88-32.25 166.63-32.25 178.13-12.3 178.63-12.3 178.43-31.95 185.88-32.4Z" opacity="1" transform="matrix(1,0,0,1,0,0)" fill="#bb84e8" class="undefined-text-0" data-fill-palette-color="primary" id="text-0"></path></svg></g></svg></g><g transform="matrix(1,0,0,1,0,40.047028210526314)"><svg viewBox="0 0 192 21.597473684210524" height="21.597473684210524" width="192"><g transform="matrix(1,0,0,1,0,0)"><svg width="192" viewBox="1.399999976158142 -36.70000076293945 394.27001953125 44.35000228881836" height="21.597473684210524" data-palette-color="#471aa0"><path d="M7.35-33L7.35-33Q7.35-34.65 7.05-35.35L7.05-35.35Q10.95-36.7 14.4-36.7L14.4-36.7Q14.85-36.25 14.85-34.4L14.85-34.4Q14.85-31.1 12.05-19.2L12.05-19.2Q16.1-22.15 19.15-22.15L19.15-22.15Q21.05-22.15 22.03-20.95 23-19.75 23-17.78 23-15.8 21.85-11.33 20.7-6.85 20.7-5.2 20.7-3.55 21.1-3.55 21.5-3.55 23.2-4.45L23.2-4.45 23.8-4.75 24.7-3Q24.25-2.6 23.5-2 22.75-1.4 20.75-0.4 18.75 0.6 17.07 0.6 15.4 0.6 14.4-0.48 13.4-1.55 13.4-3.38 13.4-5.2 14.53-10.03 15.65-14.85 15.65-16.13 15.65-17.4 14.6-17.4L14.6-17.4Q13.3-17.4 11.35-16.3L11.35-16.3Q8.6-4.2 8.6-0.6L8.6-0.6Q6.5 0.2 1.45 0.2L1.45 0.2Q1.4-0.65 1.4-1.3L1.4-1.3Q1.4-3.45 4.38-16 7.35-28.55 7.35-33ZM32.34-8.65L32.34-8.65Q32.34-14.9 36.12-18.53 39.89-22.15 44.69-22.15L44.69-22.15Q47.64-22.15 49.54-20.7 51.44-19.25 51.44-16.82 51.44-14.4 50.22-12.75 48.99-11.1 47.24-10.2L47.24-10.2Q43.69-8.45 40.74-8L40.74-8 39.54-7.85Q39.89-3.15 43.39-3.15L43.39-3.15Q44.59-3.15 45.94-3.75 47.29-4.35 48.04-4.95L48.04-4.95 48.79-5.55 49.99-3.95Q49.59-3.4 48.39-2.5 47.19-1.6 46.14-1L46.14-1Q43.24 0.6 39.79 0.6 36.34 0.6 34.34-1.85 32.34-4.3 32.34-8.65ZM39.49-10.3Q42.04-10.75 43.54-12.45 45.04-14.15 45.04-16.85 45.04-19.55 43.44-19.55L43.44-19.55Q41.54-19.55 40.52-16.32 39.49-13.1 39.49-10.3L39.49-10.3ZM73.64-20.7L73.64-20.7Q73.74-20.8 74.19-22L74.19-22Q76.54-22 80.49-20.6L80.49-20.6Q79.24-16.45 78.49-11.93 77.74-7.4 77.74-5.48 77.74-3.55 78.14-3.55L78.14-3.55Q78.44-3.55 80.34-4.5L80.34-4.5 80.94-4.8 81.84-3.05Q81.39-2.65 80.66-2.05 79.94-1.45 77.94-0.43 75.94 0.6 74.34 0.6L74.34 0.6Q71.24 0.6 70.74-2.2L70.74-2.2Q67.54 0.6 64.96 0.6 62.39 0.6 60.61-1.4 58.84-3.4 58.84-7.7L58.84-7.7Q58.84-14.4 61.59-18.28 64.34-22.15 68.24-22.15L68.24-22.15Q71.04-22.15 73.64-20.7ZM67.94-3.65L67.94-3.65Q69.14-3.65 70.64-4.6L70.64-4.6Q70.99-11.65 72.99-18.55L72.99-18.55Q71.49-19.2 70.44-19.2L70.44-19.2Q68.64-19.2 67.36-15.68 66.09-12.15 66.09-7.9 66.09-3.65 67.94-3.65ZM92.86 0.6Q91.13 0.6 90.01-0.55 88.88-1.7 88.88-3.78 88.88-5.85 91.36-17.03 93.83-28.2 93.83-33.15L93.83-33.15 93.53-35.35Q97.43-36.7 100.83-36.7L100.83-36.7Q101.33-36 101.33-34.25L101.33-34.25Q101.33-30.25 98.81-18.78 96.28-7.3 96.28-5.43 96.28-3.55 96.73-3.55L96.73-3.55 100.23-4.8 101.13-3.05Q99.43-1.7 97.01-0.55 94.58 0.6 92.86 0.6ZM119.33-21.55L124.18-21.55Q124.08-20.3 123.33-18.65L123.33-18.65Q121.43-18.85 119.73-18.85L119.73-18.85 118.83-18.85Q116.53-7.7 116.53-4.95L116.53-4.95Q116.53-3.5 117.15-3.5 117.78-3.5 120.48-4.75L120.48-4.75 121.38-3.1Q116.93 0.6 113.13 0.6L113.13 0.6Q111.38 0.6 110.25-0.5 109.13-1.6 109.13-3.43 109.13-5.25 109.55-7.55 109.98-9.85 110.73-13.18 111.48-16.5 111.83-18.55L111.83-18.55Q109.98-18.4 109.08-18.25L109.08-18.25Q108.98-18.85 108.98-19.88 108.98-20.9 109.13-21.55L109.13-21.55 112.28-21.55Q112.68-24.25 112.68-26.65L112.68-26.65 112.63-28.2 112.63-28.35Q116.53-29.7 119.98-29.7L119.98-29.7Q120.18-28.7 120.18-27.2 120.18-25.7 119.33-21.55L119.33-21.55ZM135.37-33L135.37-33Q135.37-34.65 135.07-35.35L135.07-35.35Q138.97-36.7 142.42-36.7L142.42-36.7Q142.87-36.25 142.87-34.4L142.87-34.4Q142.87-31.1 140.07-19.2L140.07-19.2Q144.12-22.15 147.17-22.15L147.17-22.15Q149.07-22.15 150.05-20.95 151.02-19.75 151.02-17.78 151.02-15.8 149.87-11.33 148.72-6.85 148.72-5.2 148.72-3.55 149.12-3.55 149.52-3.55 151.22-4.45L151.22-4.45 151.82-4.75 152.72-3Q152.27-2.6 151.52-2 150.77-1.4 148.77-0.4 146.77 0.6 145.1 0.6 143.42 0.6 142.42-0.48 141.42-1.55 141.42-3.38 141.42-5.2 142.55-10.03 143.67-14.85 143.67-16.13 143.67-17.4 142.62-17.4L142.62-17.4Q141.32-17.4 139.37-16.3L139.37-16.3Q136.62-4.2 136.62-0.6L136.62-0.6Q134.52 0.2 129.47 0.2L129.47 0.2Q129.42-0.65 129.42-1.3L129.42-1.3Q129.42-3.45 132.4-16 135.37-28.55 135.37-33ZM208.06-4.1L208.06-4.1Q208.66-4.1 210.16-5L210.16-5 210.66-5.3 211.91-3.45Q207.86 0.45 204.11 0.45 200.36 0.45 197.66-3.25L197.66-3.25Q193.21 0.55 187.66 0.55L187.66 0.55Q183.31 0.55 180.74-1.68 178.16-3.9 178.16-7.8L178.16-7.8Q178.16-14.95 187.51-19.95L187.51-19.95Q185.36-24.1 185.36-27.05L185.36-27.05Q185.36-31.05 188.26-33.27 191.16-35.5 195.11-35.5 199.06-35.5 200.94-33.83 202.81-32.15 202.81-29.9L202.81-29.9Q202.81-25.7 195.41-20.6L195.41-20.6Q197.71-16.2 200.61-11.85L200.61-11.85Q201.76-13.4 203.14-15.88 204.51-18.35 204.76-18.75L204.76-18.75Q207.51-18.35 208.26-17.05L208.26-17.05Q207.71-16.35 205.84-13.5 203.96-10.65 202.76-9.15L202.76-9.15Q206.71-4.1 208.06-4.1ZM185.26-9L185.26-9Q185.26-6.25 186.51-4.83 187.76-3.4 189.56-3.4 191.36-3.4 192.71-4.05 194.06-4.7 194.71-5.35L194.71-5.35 195.36-6Q190.81-13.2 188.96-17.05L188.96-17.05Q185.26-14.1 185.26-9ZM197.29-26.53Q197.76-27.1 198.11-27.9 198.46-28.7 198.46-29.68 198.46-30.65 197.64-31.4 196.81-32.15 195.31-32.15 193.81-32.15 192.64-31.33 191.46-30.5 191.46-28.63 191.46-26.75 193.61-23.45L193.61-23.45Q194.31-23.95 194.91-24.35 195.51-24.75 196.16-25.35 196.81-25.95 197.29-26.53ZM245.6-21.55L250.25-21.55Q250.15-20.45 249.35-18.65L249.35-18.65Q247.45-18.85 245.6-18.85L245.6-18.85 245.4-18.85Q244.35-6.5 243.45-0.6 242.55 5.3 241.1 7.65L241.1 7.65Q239.3 7.6 237.38 7.18 235.45 6.75 234.75 6.3L234.75 6.3Q235.95 2.6 237.18-4.85 238.4-12.3 238.75-18.6L238.75-18.6Q237.35-18.5 235.65-18.25L235.65-18.25Q235.5-18.9 235.5-19.58 235.5-20.25 235.7-21.55L235.7-21.55 238.9-21.55Q239-25.9 239.35-28.15L239.35-28.15Q239.95-32.15 242.13-34.43 244.3-36.7 247.75-36.7L247.75-36.7Q249.95-36.7 251.23-35.73 252.5-34.75 252.5-32.65 252.5-30.55 250.6-27.23 248.7-23.9 245.6-21.55L245.6-21.55ZM245.7-24.7Q247.65-26.35 248.75-28.35 249.85-30.35 249.85-31.98 249.85-33.6 248.8-33.6L248.8-33.6Q246.6-33.6 246-28.55L246-28.55Q245.8-26.85 245.7-24.7L245.7-24.7ZM266.9-19.05Q266.9-16.95 265.55-11.83 264.2-6.7 264.2-5.13 264.2-3.55 264.65-3.55L264.65-3.55Q264.95-3.55 266.95-4.5L266.95-4.5 267.55-4.8 268.4-3.05Q267.95-2.65 267.2-2.05 266.45-1.45 264.4-0.43 262.35 0.6 260.6 0.6 258.85 0.6 257.85-0.48 256.85-1.55 256.85-3.38 256.85-5.2 258.1-9.88 259.35-14.55 259.35-15.95L259.35-15.95Q259.35-18.05 258.05-19.9L258.05-19.9 257.6-20.5 257.65-21.15Q260.3-21.9 266.25-21.9L266.25-21.9Q266.9-21.15 266.9-19.05ZM261.2-27.38Q260.2-28.35 260.2-30 260.2-31.65 261.57-32.9 262.95-34.15 264.75-34.15 266.55-34.15 267.55-33.15 268.55-32.15 268.55-30.53 268.55-28.9 267.12-27.65 265.7-26.4 263.95-26.4 262.2-26.4 261.2-27.38ZM287.19-21.55L292.04-21.55Q291.94-20.3 291.19-18.65L291.19-18.65Q289.29-18.85 287.59-18.85L287.59-18.85 286.69-18.85Q284.39-7.7 284.39-4.95L284.39-4.95Q284.39-3.5 285.02-3.5 285.64-3.5 288.34-4.75L288.34-4.75 289.24-3.1Q284.79 0.6 280.99 0.6L280.99 0.6Q279.24 0.6 278.12-0.5 276.99-1.6 276.99-3.43 276.99-5.25 277.42-7.55 277.84-9.85 278.59-13.18 279.34-16.5 279.69-18.55L279.69-18.55Q277.84-18.4 276.94-18.25L276.94-18.25Q276.84-18.85 276.84-19.88 276.84-20.9 276.99-21.55L276.99-21.55 280.14-21.55Q280.54-24.25 280.54-26.65L280.54-26.65 280.49-28.2 280.49-28.35Q284.39-29.7 287.84-29.7L287.84-29.7Q288.04-28.7 288.04-27.2 288.04-25.7 287.19-21.55L287.19-21.55ZM299.23 0.15L299.23 0.15 298.28 0.15Q298.28-2.2 299.71-8.85 301.13-15.5 301.13-16.4L301.13-16.4Q301.13-18.05 299.73-19.9L299.73-19.9 299.28-20.5 299.33-21.15Q302.03-21.9 307.98-21.9L307.98-21.9Q308.63-21.05 308.68-18.8L308.68-18.8Q313.03-22.15 316.03-22.15L316.03-22.15Q317.83-22.15 318.91-20.9 319.98-19.65 319.98-17.78 319.98-15.9 318.83-11.3 317.68-6.7 317.68-5.13 317.68-3.55 318.08-3.55L318.08-3.55Q318.38-3.55 320.18-4.5L320.18-4.5 320.78-4.8 321.68-3.05Q321.23-2.65 320.48-2.05 319.73-1.45 317.71-0.43 315.68 0.6 314.08 0.6L314.08 0.6Q310.43 0.6 310.43-3.55L310.43-3.55Q310.43-5.3 311.56-10 312.68-14.7 312.68-16.05 312.68-17.4 311.83-17.4L311.83-17.4Q310.38-17.4 308.28-16.15L308.28-16.15Q308.13-15.3 307.28-11.65L307.28-11.65Q305.53-3.8 305.53-0.55L305.53-0.55Q303.78 0.15 299.23 0.15ZM329.33-8.65L329.33-8.65Q329.33-14.9 333.1-18.53 336.88-22.15 341.68-22.15L341.68-22.15Q344.63-22.15 346.53-20.7 348.43-19.25 348.43-16.82 348.43-14.4 347.2-12.75 345.98-11.1 344.23-10.2L344.23-10.2Q340.68-8.45 337.73-8L337.73-8 336.53-7.85Q336.88-3.15 340.38-3.15L340.38-3.15Q341.58-3.15 342.93-3.75 344.28-4.35 345.03-4.95L345.03-4.95 345.78-5.55 346.98-3.95Q346.58-3.4 345.38-2.5 344.18-1.6 343.13-1L343.13-1Q340.23 0.6 336.78 0.6 333.33 0.6 331.33-1.85 329.33-4.3 329.33-8.65ZM336.48-10.3Q339.03-10.75 340.53-12.45 342.03-14.15 342.03-16.85 342.03-19.55 340.43-19.55L340.43-19.55Q338.53-19.55 337.5-16.32 336.48-13.1 336.48-10.3L336.48-10.3ZM371.67-6.55L371.67-6.55Q371.67-3.4 368.9-1.4 366.12 0.6 362.57 0.6 359.02 0.6 356.95-0.9 354.87-2.4 354.87-3.55L354.87-3.55Q354.87-4.25 356.62-5.83 358.37-7.4 359.57-7.75L359.57-7.75Q362.07-5.9 363.67-1.9L363.67-1.9Q365.52-2.05 365.52-3.65L365.52-3.65Q365.52-5.95 361.47-10.18 357.42-14.4 357.42-16.9 357.42-19.4 359.67-20.78 361.92-22.15 365.1-22.15 368.27-22.15 369.87-21.03 371.47-19.9 371.47-17.98 371.47-16.05 368.42-12.65L368.42-12.65Q368.77-12.3 369.32-11.73 369.87-11.15 370.77-9.55 371.67-7.95 371.67-6.55ZM366.87-14.4Q368.97-16.2 368.97-17.95 368.97-19.7 366.57-19.7L366.57-19.7Q365.42-19.7 364.67-19.23 363.92-18.75 363.92-18.15L363.92-18.15Q363.92-17.05 366.12-15.05L366.12-15.05 366.87-14.4ZM395.67-6.55L395.67-6.55Q395.67-3.4 392.89-1.4 390.12 0.6 386.57 0.6 383.02 0.6 380.94-0.9 378.87-2.4 378.87-3.55L378.87-3.55Q378.87-4.25 380.62-5.83 382.37-7.4 383.57-7.75L383.57-7.75Q386.07-5.9 387.67-1.9L387.67-1.9Q389.52-2.05 389.52-3.65L389.52-3.65Q389.52-5.95 385.47-10.18 381.42-14.4 381.42-16.9 381.42-19.4 383.67-20.78 385.92-22.15 389.09-22.15 392.27-22.15 393.87-21.03 395.47-19.9 395.47-17.98 395.47-16.05 392.42-12.65L392.42-12.65Q392.77-12.3 393.32-11.73 393.87-11.15 394.77-9.55 395.67-7.95 395.67-6.55ZM390.87-14.4Q392.97-16.2 392.97-17.95 392.97-19.7 390.57-19.7L390.57-19.7Q389.42-19.7 388.67-19.23 387.92-18.75 387.92-18.15L387.92-18.15Q387.92-17.05 390.12-15.05L390.12-15.05 390.87-14.4Z" opacity="1" transform="matrix(1,0,0,1,0,0)" fill="#471aa0" class="undefined-text-1" data-fill-palette-color="secondary" id="text-1"></path></svg></g></svg></g></svg></g></svg></g><g transform="matrix(1,0,0,1,36.672,0)"><svg viewBox="0 0 118.656 65.92" height="65.92" width="118.656"><g><svg xmlns="http://www.w3.org/2000/svg" xmlns:xlink="http://www.w3.org/1999/xlink" version="1.1" x="0" y="0" viewBox="13 25 54 30" enable-background="new 0 0 80 80" xml:space="preserve" height="65.92" width="118.656" class="icon-icon-0" data-fill-palette-color="accent" id="icon-0"><g fill="#471aa0" data-fill-palette-color="accent"><path d="M65.6 40c0.8-0.7 1.4-1.8 1.4-3 0-1.1-0.9-2-2-2-0.7 0-1.4 0.2-2 0.5V32c0-0.6-0.4-1-1-1h-3v-5c0-0.6-0.4-1-1-1h-4c-0.6 0-1 0.4-1 1v11H27V26c0-0.6-0.4-1-1-1h-4c-0.6 0-1 0.4-1 1v5h-3c-0.6 0-1 0.4-1 1v3.5c-0.6-0.3-1.3-0.5-2-0.5-1.1 0-2 0.9-2 2 0 1.2 0.5 2.3 1.4 3-0.8 0.7-1.4 1.8-1.4 3 0 1.1 0.9 2 2 2 0.7 0 1.4-0.2 2-0.5V48c0 0.6 0.4 1 1 1h3v5c0 0.6 0.4 1 1 1h4c0.6 0 1-0.4 1-1V43h26v11c0 0.6 0.4 1 1 1h4c0.6 0 1-0.4 1-1v-5h3c0.6 0 1-0.4 1-1v-3.5c0.6 0.3 1.3 0.5 2 0.5 1.1 0 2-0.9 2-2C67 41.8 66.5 40.7 65.6 40zM65 37c0 1.1-0.9 2-2 2C63 37.9 63.9 37 65 37zM44.6 41l1-2h1.8l-1 2H44.6zM40.6 41l1-2h1.8l-1 2H40.6zM36.6 41l1-2h1.8l-1 2H36.6zM32.6 41l1-2h1.8l-1 2H32.6zM15 37c1.1 0 2 0.9 2 2C15.9 39 15 38.1 15 37zM15 43c0-1.1 0.9-2 2-2C17 42.1 16.1 43 15 43zM19 47v-6-1-1-6h2v14H19zM25 53h-2v-5V32v-5h2v11 4V53zM27 39h4.4l-1 2H27V39zM48.6 41l1-2H53v2H48.6zM57 53h-2V42v-4V27h2v5 16V53zM61 47h-2V33h2v6 1 1V47zM65 43c-1.1 0-2-0.9-2-2C64.1 41 65 41.9 65 43L65 43z" fill="#471aa0" data-fill-palette-color="accent"></path></g></svg></g></svg></g><g></g></svg></g></svg></g></svg></g></svg></g></svg><rect width="320" height="360" fill="none" stroke="none" visibility="hidden"></rect></g></svg></g></svg>